<svg xmlns="http://www.w3.org/2000/svg" xmlns:xlink="http://www.w3.org/1999/xlink" width="1500" zoomAndPan="magnify" viewBox="0 0 1125 1124.99995" height="1500" preserveAspectRatio="xMidYMid meet" version="1.0"><defs><g/></defs><g fill="#ff00ff" fill-opacity="1"><g transform="translate(36.270332, 628.927152)"><g><path d="M 144.191406 0 L 144.191406 -27.464844 L 89.261719 -27.464844 L 89.261719 -109.859375 L 144.191406 -109.859375 L 144.191406 -137.324219 L 6.867188 -137.324219 L 6.867188 -109.859375 L 61.796875 -109.859375 L 61.796875 -27.464844 L 6.867188 -27.464844 L 6.867188 0 Z M 144.191406 0 "/></g></g></g><g fill="#ff00ff" fill-opacity="1"><g transform="translate(214.447488, 628.927152)"><g><path d="M 144.191406 -137.324219 L 34.332031 -137.324219 C 19.226562 -137.324219 6.867188 -124.964844 6.867188 -109.859375 L 6.867188 -82.394531 C 6.867188 -67.289062 19.226562 -54.929688 34.332031 -54.929688 L 116.726562 -54.929688 L 116.726562 -27.464844 L 6.867188 -27.464844 L 6.867188 0 L 116.726562 0 C 131.832031 0 144.191406 -12.359375 144.191406 -27.464844 L 144.191406 -54.929688 C 144.191406 -70.035156 131.832031 -82.394531 116.726562 -82.394531 L 34.332031 -82.394531 L 34.332031 -109.859375 L 144.191406 -109.859375 Z M 144.191406 -137.324219 "/></g></g></g><g fill="#ff00ff" fill-opacity="1"><g transform="translate(392.624644, 628.927152)"><g><path d="M 34.332031 -137.324219 C 19.226562 -137.324219 6.867188 -124.964844 6.867188 -109.859375 L 6.867188 0 L 34.332031 0 L 34.332031 -109.859375 L 61.796875 -109.859375 L 61.796875 0 L 89.261719 0 L 89.261719 -109.859375 L 116.726562 -109.859375 L 116.726562 0 L 144.191406 0 L 144.191406 -109.859375 C 144.191406 -124.964844 131.832031 -137.324219 116.726562 -137.324219 Z M 34.332031 -137.324219 "/></g></g></g><g fill="#ff00ff" fill-opacity="1"><g transform="translate(570.801827, 628.927152)"><g><path d="M 34.332031 -137.324219 C 19.226562 -137.324219 6.867188 -124.964844 6.867188 -109.859375 L 6.867188 0 L 34.332031 0 L 34.332031 -54.929688 L 116.726562 -54.929688 L 116.726562 0 L 144.191406 0 L 144.191406 -109.859375 C 144.191406 -124.964844 131.832031 -137.324219 116.726562 -137.324219 Z M 34.332031 -109.859375 L 116.726562 -109.859375 L 116.726562 -82.394531 L 34.332031 -82.394531 Z M 34.332031 -109.859375 "/></g></g></g><g fill="#ff00ff" fill-opacity="1"><g transform="translate(748.978957, 628.927152)"><g><path d="M 144.191406 -137.324219 L 34.332031 -137.324219 C 19.226562 -137.324219 6.867188 -124.964844 6.867188 -109.859375 L 6.867188 -27.464844 C 6.867188 -12.359375 19.226562 0 34.332031 0 L 144.191406 0 L 144.191406 -27.464844 L 34.332031 -27.464844 L 34.332031 -54.929688 L 144.191406 -54.929688 L 144.191406 -82.394531 L 34.332031 -82.394531 L 34.332031 -109.859375 L 144.191406 -109.859375 Z M 144.191406 -137.324219 "/></g></g></g><g fill="#ff00ff" fill-opacity="1"><g transform="translate(927.156086, 628.927152)"><g><path d="M 144.191406 0 L 144.191406 -27.464844 L 34.332031 -27.464844 L 34.332031 -137.324219 L 6.867188 -137.324219 L 6.867188 -27.464844 C 6.867188 -12.359375 19.226562 0 34.332031 0 Z M 144.191406 0 "/></g></g></g><g fill="#00ffff" fill-opacity="1"><g transform="translate(57.17719, 633.753863)"><g><path d="M 144.191406 0 L 144.191406 -27.464844 L 89.261719 -27.464844 L 89.261719 -109.859375 L 144.191406 -109.859375 L 144.191406 -137.324219 L 6.867188 -137.324219 L 6.867188 -109.859375 L 61.796875 -109.859375 L 61.796875 -27.464844 L 6.867188 -27.464844 L 6.867188 0 Z M 144.191406 0 "/></g></g></g><g fill="#00ffff" fill-opacity="1"><g transform="translate(235.354346, 633.753863)"><g><path d="M 144.191406 -137.324219 L 34.332031 -137.324219 C 19.226562 -137.324219 6.867188 -124.964844 6.867188 -109.859375 L 6.867188 -82.394531 C 6.867188 -67.289062 19.226562 -54.929688 34.332031 -54.929688 L 116.726562 -54.929688 L 116.726562 -27.464844 L 6.867188 -27.464844 L 6.867188 0 L 116.726562 0 C 131.832031 0 144.191406 -12.359375 144.191406 -27.464844 L 144.191406 -54.929688 C 144.191406 -70.035156 131.832031 -82.394531 116.726562 -82.394531 L 34.332031 -82.394531 L 34.332031 -109.859375 L 144.191406 -109.859375 Z M 144.191406 -137.324219 "/></g></g></g><g fill="#00ffff" fill-opacity="1"><g transform="translate(413.531502, 633.753863)"><g><path d="M 34.332031 -137.324219 C 19.226562 -137.324219 6.867188 -124.964844 6.867188 -109.859375 L 6.867188 0 L 34.332031 0 L 34.332031 -109.859375 L 61.796875 -109.859375 L 61.796875 0 L 89.261719 0 L 89.261719 -109.859375 L 116.726562 -109.859375 L 116.726562 0 L 144.191406 0 L 144.191406 -109.859375 C 144.191406 -124.964844 131.832031 -137.324219 116.726562 -137.324219 Z M 34.332031 -137.324219 "/></g></g></g><g fill="#00ffff" fill-opacity="1"><g transform="translate(591.708685, 633.753863)"><g><path d="M 34.332031 -137.324219 C 19.226562 -137.324219 6.867188 -124.964844 6.867188 -109.859375 L 6.867188 0 L 34.332031 0 L 34.332031 -54.929688 L 116.726562 -54.929688 L 116.726562 0 L 144.191406 0 L 144.191406 -109.859375 C 144.191406 -124.964844 131.832031 -137.324219 116.726562 -137.324219 Z M 34.332031 -109.859375 L 116.726562 -109.859375 L 116.726562 -82.394531 L 34.332031 -82.394531 Z M 34.332031 -109.859375 "/></g></g></g><g fill="#00ffff" fill-opacity="1"><g transform="translate(769.885815, 633.753863)"><g><path d="M 144.191406 -137.324219 L 34.332031 -137.324219 C 19.226562 -137.324219 6.867188 -124.964844 6.867188 -109.859375 L 6.867188 -27.464844 C 6.867188 -12.359375 19.226562 0 34.332031 0 L 144.191406 0 L 144.191406 -27.464844 L 34.332031 -27.464844 L 34.332031 -54.929688 L 144.191406 -54.929688 L 144.191406 -82.394531 L 34.332031 -82.394531 L 34.332031 -109.859375 L 144.191406 -109.859375 Z M 144.191406 -137.324219 "/></g></g></g><g fill="#00ffff" fill-opacity="1"><g transform="translate(948.062944, 633.753863)"><g><path d="M 144.191406 0 L 144.191406 -27.464844 L 34.332031 -27.464844 L 34.332031 -137.324219 L 6.867188 -137.324219 L 6.867188 -27.464844 C 6.867188 -12.359375 19.226562 0 34.332031 0 Z M 144.191406 0 "/></g></g></g><g fill="#ffffff" fill-opacity="1"><g transform="translate(46.723761, 631.340496)"><g><path d="M 144.191406 0 L 144.191406 -27.464844 L 89.261719 -27.464844 L 89.261719 -109.859375 L 144.191406 -109.859375 L 144.191406 -137.324219 L 6.867188 -137.324219 L 6.867188 -109.859375 L 61.796875 -109.859375 L 61.796875 -27.464844 L 6.867188 -27.464844 L 6.867188 0 Z M 144.191406 0 "/></g></g></g><g fill="#ffffff" fill-opacity="1"><g transform="translate(224.900917, 631.340496)"><g><path d="M 144.191406 -137.324219 L 34.332031 -137.324219 C 19.226562 -137.324219 6.867188 -124.964844 6.867188 -109.859375 L 6.867188 -82.394531 C 6.867188 -67.289062 19.226562 -54.929688 34.332031 -54.929688 L 116.726562 -54.929688 L 116.726562 -27.464844 L 6.867188 -27.464844 L 6.867188 0 L 116.726562 0 C 131.832031 0 144.191406 -12.359375 144.191406 -27.464844 L 144.191406 -54.929688 C 144.191406 -70.035156 131.832031 -82.394531 116.726562 -82.394531 L 34.332031 -82.394531 L 34.332031 -109.859375 L 144.191406 -109.859375 Z M 144.191406 -137.324219 "/></g></g></g><g fill="#ffffff" fill-opacity="1"><g transform="translate(403.078073, 631.340496)"><g><path d="M 34.332031 -137.324219 C 19.226562 -137.324219 6.867188 -124.964844 6.867188 -109.859375 L 6.867188 0 L 34.332031 0 L 34.332031 -109.859375 L 61.796875 -109.859375 L 61.796875 0 L 89.261719 0 L 89.261719 -109.859375 L 116.726562 -109.859375 L 116.726562 0 L 144.191406 0 L 144.191406 -109.859375 C 144.191406 -124.964844 131.832031 -137.324219 116.726562 -137.324219 Z M 34.332031 -137.324219 "/></g></g></g><g fill="#ffffff" fill-opacity="1"><g transform="translate(581.255256, 631.340496)"><g><path d="M 34.332031 -137.324219 C 19.226562 -137.324219 6.867188 -124.964844 6.867188 -109.859375 L 6.867188 0 L 34.332031 0 L 34.332031 -54.929688 L 116.726562 -54.929688 L 116.726562 0 L 144.191406 0 L 144.191406 -109.859375 C 144.191406 -124.964844 131.832031 -137.324219 116.726562 -137.324219 Z M 34.332031 -109.859375 L 116.726562 -109.859375 L 116.726562 -82.394531 L 34.332031 -82.394531 Z M 34.332031 -109.859375 "/></g></g></g><g fill="#ffffff" fill-opacity="1"><g transform="translate(759.432386, 631.340496)"><g><path d="M 144.191406 -137.324219 L 34.332031 -137.324219 C 19.226562 -137.324219 6.867188 -124.964844 6.867188 -109.859375 L 6.867188 -27.464844 C 6.867188 -12.359375 19.226562 0 34.332031 0 L 144.191406 0 L 144.191406 -27.464844 L 34.332031 -27.464844 L 34.332031 -54.929688 L 144.191406 -54.929688 L 144.191406 -82.394531 L 34.332031 -82.394531 L 34.332031 -109.859375 L 144.191406 -109.859375 Z M 144.191406 -137.324219 "/></g></g></g><g fill="#ffffff" fill-opacity="1"><g transform="translate(937.609515, 631.340496)"><g><path d="M 144.191406 0 L 144.191406 -27.464844 L 34.332031 -27.464844 L 34.332031 -137.324219 L 6.867188 -137.324219 L 6.867188 -27.464844 C 6.867188 -12.359375 19.226562 0 34.332031 0 Z M 144.191406 0 "/></g></g></g></svg>